<?xml version="1.0" encoding="UTF-8" standalone="no"?><!DOCTYPE svg PUBLIC "-//W3C//DTD SVG 1.1//EN" "http://www.w3.org/Graphics/SVG/1.1/DTD/svg11.dtd"><svg width="100%" height="100%" viewBox="0 0 400 400" version="1.1" xmlns="http://www.w3.org/2000/svg" xmlns:xlink="http://www.w3.org/1999/xlink" xml:space="preserve" xmlns:serif="http://www.serif.com/" style="fill-rule:evenodd;clip-rule:evenodd;stroke-linejoin:round;stroke-miterlimit:2;"><path d="M176.923,96.619l70.422,122.935l31.193,-11.689l20.723,2.871c-1.644,4.009 -3.87,7.428 -6.557,9.737c-8.262,7.098 -27.227,13.48 -36.383,12.542c-0,0 22,4.247 34.274,-5.114l-47.083,81.489l-124.364,-212.771l57.775,-0Z" style="fill:#af1102;"/><path d="M201.533,96.619l-63.49,-0c0,-0 4.966,34.545 19.56,51.156c-0,0 -3.309,-21.115 4.081,-33.586c0,0 2.204,44.052 32.411,101.01c30.207,56.959 49.433,94.191 49.433,94.191l31.377,-69.294c-0,0 -9.072,1.709 -16.152,-6.251c-0,-0 23.813,2.807 40.294,-19.619c16.48,-22.427 8.557,-43.91 2.597,-54.75c-2.892,-5.261 -4.963,-10.696 -0.513,-17.518c1.519,-2.327 -9.991,5.856 -15.057,21.386c-2.513,7.703 5.476,21.103 0.065,28.711c-9.87,13.88 -34.097,20.179 -34.097,20.179l-19.084,-32.132l-31.425,-83.483Z" style="fill:#d45b0f;"/><path d="M201.533,96.619l42.64,69.476c0,-0 -6.707,25.471 2.631,39.009c7.989,11.584 18.064,-53.684 18.064,-53.684l0.234,-6.845c-0,-0 -0.071,25.921 20.397,40.596c-0,-0 -7.054,-31.836 15.685,-43.306c0,0 -9.639,11.217 -5.27,24.366c3.398,10.226 9.497,30.124 -8.115,49.342c-15.926,17.38 -41.999,14.081 -41.999,14.081c-0,0 9.796,11.678 6.895,22.953c-2.901,11.275 -13.039,23.407 -10.606,34.491l2.218,16.042c0,0 -15.5,-24.709 -21.346,-47.672c-5.845,-22.963 -0.585,-54.588 -0.585,-54.588c0,0 -8.139,10.632 -11.36,22.458c-0,-0 -9.115,-32.413 1.179,-65.025c0,-0 -12.264,11.783 -14.892,41.98c0,-0 -9.728,-32.029 -6.735,-57.267c3.005,-25.332 10.965,-46.407 10.965,-46.407Z" style="fill:#f58605;"/><path d="M227.516,138.461l16.657,27.634c0,-0 -3.504,19.784 0.478,31.905c-0,-0 5.765,-61.743 25.935,-75.925c-0,0 -8.352,16.24 -4.483,33.459c4.572,20.348 -0.433,53.736 -22.855,58.265c0,-0 3.803,4.191 15.265,3.321c0,0 -9.883,8.219 -18.295,9.464c0,-0 16.426,14.69 10.11,28.538c-6.317,13.849 -7.512,21.041 -7.512,21.041c-0,0 -20.967,-19.138 -14.097,-68.04l2.709,-30.112c0,-0 -10.979,2.674 -14.304,12.174c-0,-0 -3.976,-17.227 0.414,-31.154c5.135,-16.293 9.978,-20.57 9.978,-20.57Z" style="fill:#f99f3c;"/><path d="M373.118,90.947c0,-0 -27.894,15.466 -38.796,46.497c-10.901,31.031 -12.864,53.319 -27.209,65.39c-0,0 6.702,-15.216 3.114,-32.642c-2.784,-13.521 -5.195,-28.679 1.568,-46.381c0,-0 -19.562,9.054 -25.709,22.575c-6.146,13.521 -5.931,21.844 -5.694,27.032c0.237,5.189 -6.594,-28.252 -6.594,-28.252l50.463,-45.552l48.857,-8.667Z" style="fill:#aaa8a5;"/><path d="M285.335,109.264c0,0 -9.239,12.378 -8.245,26.545c0,0 12.88,-38.157 46.158,-42.446c31.673,-4.082 49.87,-2.416 49.87,-2.416c0,-0 -25.266,5.162 -36.323,20.403c-8.89,12.254 -14.298,21.617 -17.952,40.203c0,0 -2.398,-28.277 6.12,-40.226c-0,0 -15.891,3.749 -28.562,16.854c-6.864,7.099 -14.835,25.117 -16.009,45.237c-0,0 -15.216,-12.852 -12.46,-36.776c2.756,-23.924 17.403,-27.378 17.403,-27.378Z" style="fill:#fbf7f9;"/><path d="M108.197,96.619l-29.827,-0l-18.106,10.593c-5.54,3.242 -12.67,1.376 -15.911,-4.164l-3.761,-6.429l-13.71,-0l124.488,212.771l34.631,-0l14.527,-8.5c5.54,-3.241 12.669,-1.375 15.911,4.165l2.536,4.335l13.71,-0l-124.488,-212.771Zm79.506,159.321c-3.242,-5.54 -10.371,-7.406 -15.911,-4.165l-20.076,11.746c-5.539,3.241 -7.406,10.371 -4.164,15.911l11.745,20.075c3.242,5.54 10.371,7.406 15.911,4.165l20.075,-11.746c5.54,-3.241 7.407,-10.371 4.165,-15.91l-11.745,-20.076Zm-28.737,-49.115c-3.241,-5.54 -10.37,-7.406 -15.91,-4.165l-20.076,11.746c-5.54,3.241 -7.406,10.371 -4.164,15.911l11.745,20.075c3.242,5.54 10.371,7.406 15.911,4.165l20.075,-11.746c5.54,-3.241 7.407,-10.37 4.165,-15.91l-11.746,-20.076Zm-28.736,-49.115c-3.241,-5.54 -10.37,-7.406 -15.91,-4.164l-20.076,11.745c-5.54,3.242 -7.406,10.371 -4.164,15.911l11.745,20.075c3.242,5.54 10.371,7.406 15.911,4.165l20.075,-11.746c5.54,-3.241 7.406,-10.37 4.165,-15.91l-11.746,-20.076Zm-28.736,-49.114c-3.241,-5.54 -10.37,-7.407 -15.91,-4.165l-20.076,11.745c-5.54,3.242 -7.406,10.371 -4.165,15.911l11.746,20.075c3.242,5.54 10.371,7.407 15.911,4.165l20.075,-11.745c5.54,-3.242 7.406,-10.371 4.165,-15.911l-11.746,-20.075Z" style="fill:url(#_Linear1);"/><defs><linearGradient id="_Linear1" x1="0" y1="0" x2="1" y2="0" gradientUnits="userSpaceOnUse" gradientTransform="matrix(240.882,142.403,-142.403,240.882,79.4766,173.418)"><stop offset="0" style="stop-color:#c8c8c8;stop-opacity:1"/><stop offset="1" style="stop-color:#706d69;stop-opacity:1"/></linearGradient></defs></svg>